<svg xmlns="http://www.w3.org/2000/svg" width="1220" height="712">
<rect width="100%" height="100%" fill="#ffffff" />
<style>text{font-family:Arial,Helvetica,sans-serif;} .muted{fill:#666;} .grid{stroke:#e6e6e6;}</style>
<text x="610.0" y="34" text-anchor="middle" font-size="24" font-weight="700">Mean TTFT Improvement vs Calibrated Reference</text>
<text x="610.0" y="58" text-anchor="middle" font-size="13" class="muted">Positive values are better than P 1xTP1 / D 1xTP1. Values are extrapolated except the zero baseline.</text>
<line x1="360.0" y1="70" x2="360.0" y2="668" class="grid" />
<text x="360.0" y="63" text-anchor="middle" font-size="11" class="muted">0%</text>
<line x1="427.1" y1="70" x2="427.1" y2="668" class="grid" />
<text x="427.1" y="63" text-anchor="middle" font-size="11" class="muted">1%</text>
<line x1="494.2" y1="70" x2="494.2" y2="668" class="grid" />
<text x="494.2" y="63" text-anchor="middle" font-size="11" class="muted">2%</text>
<line x1="561.3" y1="70" x2="561.3" y2="668" class="grid" />
<text x="561.3" y="63" text-anchor="middle" font-size="11" class="muted">3%</text>
<line x1="628.4" y1="70" x2="628.4" y2="668" class="grid" />
<text x="628.4" y="63" text-anchor="middle" font-size="11" class="muted">4%</text>
<line x1="695.4" y1="70" x2="695.4" y2="668" class="grid" />
<text x="695.4" y="63" text-anchor="middle" font-size="11" class="muted">5%</text>
<line x1="762.5" y1="70" x2="762.5" y2="668" class="grid" />
<text x="762.5" y="63" text-anchor="middle" font-size="11" class="muted">6%</text>
<line x1="829.6" y1="70" x2="829.6" y2="668" class="grid" />
<text x="829.6" y="63" text-anchor="middle" font-size="11" class="muted">7%</text>
<line x1="896.7" y1="70" x2="896.7" y2="668" class="grid" />
<text x="896.7" y="63" text-anchor="middle" font-size="11" class="muted">8%</text>
<line x1="963.8" y1="70" x2="963.8" y2="668" class="grid" />
<text x="963.8" y="63" text-anchor="middle" font-size="11" class="muted">9%</text>
<line x1="1030.9" y1="70" x2="1030.9" y2="668" class="grid" />
<text x="1030.9" y="63" text-anchor="middle" font-size="11" class="muted">10%</text>
<line x1="1098.0" y1="70" x2="1098.0" y2="668" class="grid" />
<text x="1098.0" y="63" text-anchor="middle" font-size="11" class="muted">11%</text>
<line x1="1165.1" y1="70" x2="1165.1" y2="668" class="grid" />
<text x="1165.1" y="63" text-anchor="middle" font-size="11" class="muted">12%</text>
<line x1="360.0" y1="66" x2="360.0" y2="670" stroke="#333" />
<text x="348" y="105" text-anchor="end" font-size="12" font-weight="400">P 8xTP1 / D 8xTP1</text>
<text x="10" y="105" font-size="11" class="muted">Balanced workers</text>
<rect x="360.0" y="93" width="790.0" height="15" fill="#1f77b4" opacity="0.86"><title>balanced_workers__p_w8_tp1__d_w8_tp1</title></rect>
<text x="1156.0" y="105" font-size="11">11.78% (165.7 ms)</text>
<text x="348" y="131" text-anchor="end" font-size="12" font-weight="400">P 4xTP1 / D 4xTP1</text>
<text x="10" y="131" font-size="11" class="muted">Balanced workers</text>
<rect x="360.0" y="119" width="686.9" height="15" fill="#1f77b4" opacity="0.86"><title>balanced_workers__p_w4_tp1__d_w4_tp1</title></rect>
<text x="1052.9" y="131" font-size="11">10.24% (168.6 ms)</text>
<text x="348" y="157" text-anchor="end" font-size="12" font-weight="400">P 4xTP2 / D 4xTP2</text>
<text x="10" y="157" font-size="11" class="muted">Mixed balanced</text>
<rect x="360.0" y="145" width="686.9" height="15" fill="#ff7f0e" opacity="0.86"><title>mixed_balanced__p_w4_tp2__d_w4_tp2</title></rect>
<text x="1052.9" y="157" font-size="11">10.24% (168.6 ms)</text>
<text x="348" y="183" text-anchor="end" font-size="12" font-weight="400">P 1xTP1 / D 8xTP1</text>
<text x="10" y="183" font-size="11" class="muted">Decode workers</text>
<rect x="360.0" y="171" width="549.3" height="15" fill="#d62728" opacity="0.86"><title>decode_worker_only__p_w1_tp1__d_w8_tp1</title></rect>
<text x="915.3" y="183" font-size="11">8.19% (172.4 ms)</text>
<text x="348" y="209" text-anchor="end" font-size="12" font-weight="400">P 2xTP1 / D 2xTP1</text>
<text x="10" y="209" font-size="11" class="muted">Balanced workers</text>
<rect x="360.0" y="197" width="480.7" height="15" fill="#1f77b4" opacity="0.86"><title>balanced_workers__p_w2_tp1__d_w2_tp1</title></rect>
<text x="846.7" y="209" font-size="11">7.17% (174.4 ms)</text>
<text x="348" y="235" text-anchor="end" font-size="12" font-weight="400">P 2xTP2 / D 2xTP2</text>
<text x="10" y="235" font-size="11" class="muted">Mixed balanced</text>
<rect x="360.0" y="223" width="480.7" height="15" fill="#ff7f0e" opacity="0.86"><title>mixed_balanced__p_w2_tp2__d_w2_tp2</title></rect>
<text x="846.7" y="235" font-size="11">7.17% (174.4 ms)</text>
<text x="348" y="261" text-anchor="end" font-size="12" font-weight="400">P 2xTP4 / D 2xTP4</text>
<text x="10" y="261" font-size="11" class="muted">Mixed balanced</text>
<rect x="360.0" y="249" width="480.7" height="15" fill="#ff7f0e" opacity="0.86"><title>mixed_balanced__p_w2_tp4__d_w2_tp4</title></rect>
<text x="846.7" y="261" font-size="11">7.17% (174.4 ms)</text>
<text x="348" y="287" text-anchor="end" font-size="12" font-weight="400">P 1xTP1 / D 4xTP1</text>
<text x="10" y="287" font-size="11" class="muted">Decode workers</text>
<rect x="360.0" y="275" width="404.1" height="15" fill="#d62728" opacity="0.86"><title>decode_worker_only__p_w1_tp1__d_w4_tp1</title></rect>
<text x="770.1" y="287" font-size="11">6.02% (176.5 ms)</text>
<text x="348" y="313" text-anchor="end" font-size="12" font-weight="400">P 1xTP1 / D 2xTP1</text>
<text x="10" y="313" font-size="11" class="muted">Decode workers</text>
<rect x="360.0" y="301" width="287.6" height="15" fill="#d62728" opacity="0.86"><title>decode_worker_only__p_w1_tp1__d_w2_tp1</title></rect>
<text x="653.6" y="313" font-size="11">4.29% (179.8 ms)</text>
<text x="348" y="339" text-anchor="end" font-size="12" font-weight="400">P 4xTP1 / D 1xTP1</text>
<text x="10" y="339" font-size="11" class="muted">Prefill workers</text>
<rect x="360.0" y="327" width="284.3" height="15" fill="#2ca02c" opacity="0.86"><title>prefill_worker_only__p_w4_tp1__d_w1_tp1</title></rect>
<text x="650.3" y="339" font-size="11">4.24% (179.9 ms)</text>
<text x="348" y="365" text-anchor="end" font-size="12" font-weight="400">P 8xTP1 / D 1xTP1</text>
<text x="10" y="365" font-size="11" class="muted">Prefill workers</text>
<rect x="360.0" y="353" width="284.3" height="15" fill="#2ca02c" opacity="0.86"><title>prefill_worker_only__p_w8_tp1__d_w1_tp1</title></rect>
<text x="650.3" y="365" font-size="11">4.24% (179.9 ms)</text>
<text x="348" y="391" text-anchor="end" font-size="12" font-weight="400">P 2xTP1 / D 1xTP1</text>
<text x="10" y="391" font-size="11" class="muted">Prefill workers</text>
<rect x="360.0" y="379" width="246.8" height="15" fill="#2ca02c" opacity="0.86"><title>prefill_worker_only__p_w2_tp1__d_w1_tp1</title></rect>
<text x="612.8" y="391" font-size="11">3.68% (180.9 ms)</text>
<text x="348" y="417" text-anchor="end" font-size="12" font-weight="400">P 1xTP2 / D 1xTP2</text>
<text x="10" y="417" font-size="11" class="muted">Balanced TP</text>
<rect x="360.0" y="405" width="1.5" height="15" fill="#8c564b" opacity="0.86"><title>balanced_tp__p_w1_tp2__d_w1_tp2</title></rect>
<text x="366.0" y="417" font-size="11">0.00% (187.8 ms)</text>
<text x="348" y="443" text-anchor="end" font-size="12" font-weight="400">P 1xTP4 / D 1xTP4</text>
<text x="10" y="443" font-size="11" class="muted">Balanced TP</text>
<rect x="360.0" y="431" width="1.5" height="15" fill="#8c564b" opacity="0.86"><title>balanced_tp__p_w1_tp4__d_w1_tp4</title></rect>
<text x="366.0" y="443" font-size="11">0.00% (187.8 ms)</text>
<text x="348" y="469" text-anchor="end" font-size="12" font-weight="400">P 1xTP8 / D 1xTP8</text>
<text x="10" y="469" font-size="11" class="muted">Balanced TP</text>
<rect x="360.0" y="457" width="1.5" height="15" fill="#8c564b" opacity="0.86"><title>balanced_tp__p_w1_tp8__d_w1_tp8</title></rect>
<text x="366.0" y="469" font-size="11">0.00% (187.8 ms)</text>
<text x="348" y="495" text-anchor="end" font-size="12" font-weight="700">P 1xTP1 / D 1xTP1</text>
<text x="10" y="495" font-size="11" class="muted">Calibrated reference</text>
<rect x="360.0" y="483" width="1.5" height="15" fill="#2b2b2b" opacity="0.86"><title>calibrated_reference__p_w1_tp1__d_w1_tp1</title></rect>
<text x="366.0" y="495" font-size="11">0.00% (187.8 ms)</text>
<text x="348" y="521" text-anchor="end" font-size="12" font-weight="400">P 1xTP1 / D 1xTP2</text>
<text x="10" y="521" font-size="11" class="muted">Decode TP</text>
<rect x="360.0" y="509" width="1.5" height="15" fill="#9467bd" opacity="0.86"><title>decode_tp_only__p_w1_tp1__d_w1_tp2</title></rect>
<text x="366.0" y="521" font-size="11">0.00% (187.8 ms)</text>
<text x="348" y="547" text-anchor="end" font-size="12" font-weight="400">P 1xTP1 / D 1xTP4</text>
<text x="10" y="547" font-size="11" class="muted">Decode TP</text>
<rect x="360.0" y="535" width="1.5" height="15" fill="#9467bd" opacity="0.86"><title>decode_tp_only__p_w1_tp1__d_w1_tp4</title></rect>
<text x="366.0" y="547" font-size="11">0.00% (187.8 ms)</text>
<text x="348" y="573" text-anchor="end" font-size="12" font-weight="400">P 1xTP1 / D 1xTP8</text>
<text x="10" y="573" font-size="11" class="muted">Decode TP</text>
<rect x="360.0" y="561" width="1.5" height="15" fill="#9467bd" opacity="0.86"><title>decode_tp_only__p_w1_tp1__d_w1_tp8</title></rect>
<text x="366.0" y="573" font-size="11">0.00% (187.8 ms)</text>
<text x="348" y="599" text-anchor="end" font-size="12" font-weight="400">P 1xTP2 / D 1xTP1</text>
<text x="10" y="599" font-size="11" class="muted">Prefill TP</text>
<rect x="360.0" y="587" width="1.5" height="15" fill="#17becf" opacity="0.86"><title>prefill_tp_only__p_w1_tp2__d_w1_tp1</title></rect>
<text x="366.0" y="599" font-size="11">0.00% (187.8 ms)</text>
<text x="348" y="625" text-anchor="end" font-size="12" font-weight="400">P 1xTP4 / D 1xTP1</text>
<text x="10" y="625" font-size="11" class="muted">Prefill TP</text>
<rect x="360.0" y="613" width="1.5" height="15" fill="#17becf" opacity="0.86"><title>prefill_tp_only__p_w1_tp4__d_w1_tp1</title></rect>
<text x="366.0" y="625" font-size="11">0.00% (187.8 ms)</text>
<text x="348" y="651" text-anchor="end" font-size="12" font-weight="400">P 1xTP8 / D 1xTP1</text>
<text x="10" y="651" font-size="11" class="muted">Prefill TP</text>
<rect x="360.0" y="639" width="1.5" height="15" fill="#17becf" opacity="0.86"><title>prefill_tp_only__p_w1_tp8__d_w1_tp1</title></rect>
<text x="366.0" y="651" font-size="11">0.00% (187.8 ms)</text>
</svg>
