<svg xmlns="http://www.w3.org/2000/svg" width="1220" height="712">
<rect width="100%" height="100%" fill="#ffffff" />
<style>text{font-family:Arial,Helvetica,sans-serif;} .muted{fill:#666;} .grid{stroke:#e6e6e6;}</style>
<text x="610.0" y="34" text-anchor="middle" font-size="24" font-weight="700">Mean TPOT Improvement vs Calibrated Reference</text>
<text x="610.0" y="58" text-anchor="middle" font-size="13" class="muted">Positive values are better than P 1xTP1 / D 1xTP1. Values are extrapolated except the zero baseline.</text>
<line x1="360.0" y1="70" x2="360.0" y2="668" class="grid" />
<text x="360.0" y="63" text-anchor="middle" font-size="11" class="muted">0%</text>
<line x1="1150.0" y1="70" x2="1150.0" y2="668" class="grid" />
<text x="1150.0" y="63" text-anchor="middle" font-size="11" class="muted">1%</text>
<line x1="1940.0" y1="70" x2="1940.0" y2="668" class="grid" />
<text x="1940.0" y="63" text-anchor="middle" font-size="11" class="muted">2%</text>
<line x1="360.0" y1="66" x2="360.0" y2="670" stroke="#333" />
<text x="348" y="105" text-anchor="end" font-size="12" font-weight="400">P 1xTP2 / D 1xTP2</text>
<text x="10" y="105" font-size="11" class="muted">Balanced TP</text>
<rect x="360.0" y="93" width="1.5" height="15" fill="#8c564b" opacity="0.86"><title>balanced_tp__p_w1_tp2__d_w1_tp2</title></rect>
<text x="366.0" y="105" font-size="11">0.00% (33.52 ms)</text>
<text x="348" y="131" text-anchor="end" font-size="12" font-weight="400">P 1xTP4 / D 1xTP4</text>
<text x="10" y="131" font-size="11" class="muted">Balanced TP</text>
<rect x="360.0" y="119" width="1.5" height="15" fill="#8c564b" opacity="0.86"><title>balanced_tp__p_w1_tp4__d_w1_tp4</title></rect>
<text x="366.0" y="131" font-size="11">0.00% (33.52 ms)</text>
<text x="348" y="157" text-anchor="end" font-size="12" font-weight="400">P 1xTP8 / D 1xTP8</text>
<text x="10" y="157" font-size="11" class="muted">Balanced TP</text>
<rect x="360.0" y="145" width="1.5" height="15" fill="#8c564b" opacity="0.86"><title>balanced_tp__p_w1_tp8__d_w1_tp8</title></rect>
<text x="366.0" y="157" font-size="11">0.00% (33.52 ms)</text>
<text x="348" y="183" text-anchor="end" font-size="12" font-weight="400">P 2xTP1 / D 2xTP1</text>
<text x="10" y="183" font-size="11" class="muted">Balanced workers</text>
<rect x="360.0" y="171" width="1.5" height="15" fill="#1f77b4" opacity="0.86"><title>balanced_workers__p_w2_tp1__d_w2_tp1</title></rect>
<text x="366.0" y="183" font-size="11">0.00% (33.52 ms)</text>
<text x="348" y="209" text-anchor="end" font-size="12" font-weight="400">P 4xTP1 / D 4xTP1</text>
<text x="10" y="209" font-size="11" class="muted">Balanced workers</text>
<rect x="360.0" y="197" width="1.5" height="15" fill="#1f77b4" opacity="0.86"><title>balanced_workers__p_w4_tp1__d_w4_tp1</title></rect>
<text x="366.0" y="209" font-size="11">0.00% (33.52 ms)</text>
<text x="348" y="235" text-anchor="end" font-size="12" font-weight="400">P 8xTP1 / D 8xTP1</text>
<text x="10" y="235" font-size="11" class="muted">Balanced workers</text>
<rect x="360.0" y="223" width="1.5" height="15" fill="#1f77b4" opacity="0.86"><title>balanced_workers__p_w8_tp1__d_w8_tp1</title></rect>
<text x="366.0" y="235" font-size="11">0.00% (33.52 ms)</text>
<text x="348" y="261" text-anchor="end" font-size="12" font-weight="700">P 1xTP1 / D 1xTP1</text>
<text x="10" y="261" font-size="11" class="muted">Calibrated reference</text>
<rect x="360.0" y="249" width="1.5" height="15" fill="#2b2b2b" opacity="0.86"><title>calibrated_reference__p_w1_tp1__d_w1_tp1</title></rect>
<text x="366.0" y="261" font-size="11">0.00% (33.52 ms)</text>
<text x="348" y="287" text-anchor="end" font-size="12" font-weight="400">P 1xTP1 / D 1xTP2</text>
<text x="10" y="287" font-size="11" class="muted">Decode TP</text>
<rect x="360.0" y="275" width="1.5" height="15" fill="#9467bd" opacity="0.86"><title>decode_tp_only__p_w1_tp1__d_w1_tp2</title></rect>
<text x="366.0" y="287" font-size="11">0.00% (33.52 ms)</text>
<text x="348" y="313" text-anchor="end" font-size="12" font-weight="400">P 1xTP1 / D 1xTP4</text>
<text x="10" y="313" font-size="11" class="muted">Decode TP</text>
<rect x="360.0" y="301" width="1.5" height="15" fill="#9467bd" opacity="0.86"><title>decode_tp_only__p_w1_tp1__d_w1_tp4</title></rect>
<text x="366.0" y="313" font-size="11">0.00% (33.52 ms)</text>
<text x="348" y="339" text-anchor="end" font-size="12" font-weight="400">P 1xTP1 / D 1xTP8</text>
<text x="10" y="339" font-size="11" class="muted">Decode TP</text>
<rect x="360.0" y="327" width="1.5" height="15" fill="#9467bd" opacity="0.86"><title>decode_tp_only__p_w1_tp1__d_w1_tp8</title></rect>
<text x="366.0" y="339" font-size="11">0.00% (33.52 ms)</text>
<text x="348" y="365" text-anchor="end" font-size="12" font-weight="400">P 1xTP1 / D 2xTP1</text>
<text x="10" y="365" font-size="11" class="muted">Decode workers</text>
<rect x="360.0" y="353" width="1.5" height="15" fill="#d62728" opacity="0.86"><title>decode_worker_only__p_w1_tp1__d_w2_tp1</title></rect>
<text x="366.0" y="365" font-size="11">0.00% (33.52 ms)</text>
<text x="348" y="391" text-anchor="end" font-size="12" font-weight="400">P 1xTP1 / D 4xTP1</text>
<text x="10" y="391" font-size="11" class="muted">Decode workers</text>
<rect x="360.0" y="379" width="1.5" height="15" fill="#d62728" opacity="0.86"><title>decode_worker_only__p_w1_tp1__d_w4_tp1</title></rect>
<text x="366.0" y="391" font-size="11">0.00% (33.52 ms)</text>
<text x="348" y="417" text-anchor="end" font-size="12" font-weight="400">P 1xTP1 / D 8xTP1</text>
<text x="10" y="417" font-size="11" class="muted">Decode workers</text>
<rect x="360.0" y="405" width="1.5" height="15" fill="#d62728" opacity="0.86"><title>decode_worker_only__p_w1_tp1__d_w8_tp1</title></rect>
<text x="366.0" y="417" font-size="11">0.00% (33.52 ms)</text>
<text x="348" y="443" text-anchor="end" font-size="12" font-weight="400">P 2xTP2 / D 2xTP2</text>
<text x="10" y="443" font-size="11" class="muted">Mixed balanced</text>
<rect x="360.0" y="431" width="1.5" height="15" fill="#ff7f0e" opacity="0.86"><title>mixed_balanced__p_w2_tp2__d_w2_tp2</title></rect>
<text x="366.0" y="443" font-size="11">0.00% (33.52 ms)</text>
<text x="348" y="469" text-anchor="end" font-size="12" font-weight="400">P 2xTP4 / D 2xTP4</text>
<text x="10" y="469" font-size="11" class="muted">Mixed balanced</text>
<rect x="360.0" y="457" width="1.5" height="15" fill="#ff7f0e" opacity="0.86"><title>mixed_balanced__p_w2_tp4__d_w2_tp4</title></rect>
<text x="366.0" y="469" font-size="11">0.00% (33.52 ms)</text>
<text x="348" y="495" text-anchor="end" font-size="12" font-weight="400">P 4xTP2 / D 4xTP2</text>
<text x="10" y="495" font-size="11" class="muted">Mixed balanced</text>
<rect x="360.0" y="483" width="1.5" height="15" fill="#ff7f0e" opacity="0.86"><title>mixed_balanced__p_w4_tp2__d_w4_tp2</title></rect>
<text x="366.0" y="495" font-size="11">0.00% (33.52 ms)</text>
<text x="348" y="521" text-anchor="end" font-size="12" font-weight="400">P 1xTP2 / D 1xTP1</text>
<text x="10" y="521" font-size="11" class="muted">Prefill TP</text>
<rect x="360.0" y="509" width="1.5" height="15" fill="#17becf" opacity="0.86"><title>prefill_tp_only__p_w1_tp2__d_w1_tp1</title></rect>
<text x="366.0" y="521" font-size="11">0.00% (33.52 ms)</text>
<text x="348" y="547" text-anchor="end" font-size="12" font-weight="400">P 1xTP4 / D 1xTP1</text>
<text x="10" y="547" font-size="11" class="muted">Prefill TP</text>
<rect x="360.0" y="535" width="1.5" height="15" fill="#17becf" opacity="0.86"><title>prefill_tp_only__p_w1_tp4__d_w1_tp1</title></rect>
<text x="366.0" y="547" font-size="11">0.00% (33.52 ms)</text>
<text x="348" y="573" text-anchor="end" font-size="12" font-weight="400">P 1xTP8 / D 1xTP1</text>
<text x="10" y="573" font-size="11" class="muted">Prefill TP</text>
<rect x="360.0" y="561" width="1.5" height="15" fill="#17becf" opacity="0.86"><title>prefill_tp_only__p_w1_tp8__d_w1_tp1</title></rect>
<text x="366.0" y="573" font-size="11">0.00% (33.52 ms)</text>
<text x="348" y="599" text-anchor="end" font-size="12" font-weight="400">P 2xTP1 / D 1xTP1</text>
<text x="10" y="599" font-size="11" class="muted">Prefill workers</text>
<rect x="360.0" y="587" width="1.5" height="15" fill="#2ca02c" opacity="0.86"><title>prefill_worker_only__p_w2_tp1__d_w1_tp1</title></rect>
<text x="366.0" y="599" font-size="11">0.00% (33.52 ms)</text>
<text x="348" y="625" text-anchor="end" font-size="12" font-weight="400">P 4xTP1 / D 1xTP1</text>
<text x="10" y="625" font-size="11" class="muted">Prefill workers</text>
<rect x="360.0" y="613" width="1.5" height="15" fill="#2ca02c" opacity="0.86"><title>prefill_worker_only__p_w4_tp1__d_w1_tp1</title></rect>
<text x="366.0" y="625" font-size="11">0.00% (33.52 ms)</text>
<text x="348" y="651" text-anchor="end" font-size="12" font-weight="400">P 8xTP1 / D 1xTP1</text>
<text x="10" y="651" font-size="11" class="muted">Prefill workers</text>
<rect x="360.0" y="639" width="1.5" height="15" fill="#2ca02c" opacity="0.86"><title>prefill_worker_only__p_w8_tp1__d_w1_tp1</title></rect>
<text x="366.0" y="651" font-size="11">0.00% (33.52 ms)</text>
</svg>
