<svg xmlns="http://www.w3.org/2000/svg" width="1180" height="1130">
<rect width="1180" height="1130" fill="#ffffff" />
<style>text{font-family:Arial,Helvetica,sans-serif;}.muted{fill:#626262}.grid{stroke:#e9e9e9}.axis{stroke:#333}</style>
<text x="590.0" y="34" text-anchor="middle" font-size="24" font-weight="700">PD Worker Assignment Sweep (<= 4 GPUs)</text>
<text x="590.0" y="58" text-anchor="middle" font-size="13" class="muted">TP is fixed at 1, so each worker uses one logical GPU. Only P1 / D1 is calibrated; all other assignments are extrapolated.</text>
<text x="590.0" y="77" text-anchor="middle" font-size="13" class="muted">Bars show improvement relative to the calibrated reference; positive values are better. Raw values are printed above each bar.</text>
<text x="88" y="98" font-size="17" font-weight="700">Mean TTFT improvement</text>
<text x="1126" y="98" text-anchor="end" font-size="12" class="muted">positive is better</text>
<line x1="88" y1="278.0" x2="1126" y2="278.0" class="grid" />
<text x="78" y="282.0" text-anchor="end" font-size="11" class="muted">-0.86%</text>
<line x1="88" y1="237.5" x2="1126" y2="237.5" class="grid" />
<text x="78" y="241.5" text-anchor="end" font-size="11" class="muted">1.36%</text>
<line x1="88" y1="197.0" x2="1126" y2="197.0" class="grid" />
<text x="78" y="201.0" text-anchor="end" font-size="11" class="muted">3.58%</text>
<line x1="88" y1="156.5" x2="1126" y2="156.5" class="grid" />
<text x="78" y="160.5" text-anchor="end" font-size="11" class="muted">5.80%</text>
<line x1="88" y1="116.0" x2="1126" y2="116.0" class="grid" />
<text x="78" y="120.0" text-anchor="end" font-size="11" class="muted">8.03%</text>
<line x1="88" y1="262.3" x2="1126" y2="262.3" stroke="#222" stroke-width="1.5" stroke-dasharray="6 5" />
<text x="1134" y="266.3" font-size="11" class="muted">baseline</text>
<rect x="88.0" y="262.3" width="159.7" height="1.0" fill="#303030" rx="3" />
<text x="167.8" y="254.3" text-anchor="middle" font-size="11" fill="#222">187.81</text>
<text x="167.8" y="300" text-anchor="middle" font-size="12">P1 / D1</text>
<text x="167.8" y="316" text-anchor="middle" font-size="11" class="muted">2 GPUs, calibrated</text>
<rect x="263.7" y="195.2" width="159.7" height="67.1" fill="#2ca02c" rx="3" />
<text x="343.5" y="187.2" text-anchor="middle" font-size="11" fill="#222">180.90</text>
<text x="343.5" y="300" text-anchor="middle" font-size="12">P2 / D1</text>
<text x="343.5" y="316" text-anchor="middle" font-size="11" class="muted">3 GPUs, prefill-heavy</text>
<rect x="439.3" y="184.2" width="159.7" height="78.1" fill="#d62728" rx="3" />
<text x="519.2" y="176.2" text-anchor="middle" font-size="11" fill="#222">179.76</text>
<text x="519.2" y="300" text-anchor="middle" font-size="12">P1 / D2</text>
<text x="519.2" y="316" text-anchor="middle" font-size="11" class="muted">3 GPUs, decode-heavy</text>
<rect x="615.0" y="190.2" width="159.7" height="72.2" fill="#2ca02c" rx="3" />
<text x="694.8" y="182.2" text-anchor="middle" font-size="11" fill="#222">180.38</text>
<text x="694.8" y="300" text-anchor="middle" font-size="12">P3 / D1</text>
<text x="694.8" y="316" text-anchor="middle" font-size="11" class="muted">4 GPUs, prefill-heavy</text>
<rect x="790.7" y="131.7" width="159.7" height="130.6" fill="#1f77b4" rx="3" />
<text x="870.5" y="123.7" text-anchor="middle" font-size="11" fill="#222">174.35</text>
<text x="870.5" y="300" text-anchor="middle" font-size="12">P2 / D2</text>
<text x="870.5" y="316" text-anchor="middle" font-size="11" class="muted">4 GPUs, balanced</text>
<rect x="966.3" y="163.9" width="159.7" height="98.4" fill="#d62728" rx="3" />
<text x="1046.2" y="155.9" text-anchor="middle" font-size="11" fill="#222">177.67</text>
<text x="1046.2" y="300" text-anchor="middle" font-size="12">P1 / D3</text>
<text x="1046.2" y="316" text-anchor="middle" font-size="11" class="muted">4 GPUs, decode-heavy</text>
<text x="88" y="350" font-size="17" font-weight="700">Mean TPOT improvement</text>
<text x="1126" y="350" text-anchor="end" font-size="12" class="muted">positive is better</text>
<line x1="88" y1="530.0" x2="1126" y2="530.0" class="grid" />
<text x="78" y="534.0" text-anchor="end" font-size="11" class="muted">-1.00%</text>
<line x1="88" y1="489.5" x2="1126" y2="489.5" class="grid" />
<text x="78" y="493.5" text-anchor="end" font-size="11" class="muted">-0.50%</text>
<line x1="88" y1="449.0" x2="1126" y2="449.0" class="grid" />
<text x="78" y="453.0" text-anchor="end" font-size="11" class="muted">0.00%</text>
<line x1="88" y1="408.5" x2="1126" y2="408.5" class="grid" />
<text x="78" y="412.5" text-anchor="end" font-size="11" class="muted">0.50%</text>
<line x1="88" y1="368.0" x2="1126" y2="368.0" class="grid" />
<text x="78" y="372.0" text-anchor="end" font-size="11" class="muted">1.00%</text>
<line x1="88" y1="449.0" x2="1126" y2="449.0" stroke="#222" stroke-width="1.5" stroke-dasharray="6 5" />
<text x="1134" y="453.0" font-size="11" class="muted">baseline</text>
<rect x="88.0" y="449.0" width="159.7" height="1.0" fill="#303030" rx="3" />
<text x="167.8" y="441.0" text-anchor="middle" font-size="11" fill="#222">33.52</text>
<text x="167.8" y="552" text-anchor="middle" font-size="12">P1 / D1</text>
<text x="167.8" y="568" text-anchor="middle" font-size="11" class="muted">2 GPUs, calibrated</text>
<rect x="263.7" y="449.0" width="159.7" height="1.0" fill="#2ca02c" rx="3" />
<text x="343.5" y="441.0" text-anchor="middle" font-size="11" fill="#222">33.52</text>
<text x="343.5" y="552" text-anchor="middle" font-size="12">P2 / D1</text>
<text x="343.5" y="568" text-anchor="middle" font-size="11" class="muted">3 GPUs, prefill-heavy</text>
<rect x="439.3" y="449.0" width="159.7" height="1.0" fill="#d62728" rx="3" />
<text x="519.2" y="441.0" text-anchor="middle" font-size="11" fill="#222">33.52</text>
<text x="519.2" y="552" text-anchor="middle" font-size="12">P1 / D2</text>
<text x="519.2" y="568" text-anchor="middle" font-size="11" class="muted">3 GPUs, decode-heavy</text>
<rect x="615.0" y="449.0" width="159.7" height="1.0" fill="#2ca02c" rx="3" />
<text x="694.8" y="441.0" text-anchor="middle" font-size="11" fill="#222">33.52</text>
<text x="694.8" y="552" text-anchor="middle" font-size="12">P3 / D1</text>
<text x="694.8" y="568" text-anchor="middle" font-size="11" class="muted">4 GPUs, prefill-heavy</text>
<rect x="790.7" y="449.0" width="159.7" height="1.0" fill="#1f77b4" rx="3" />
<text x="870.5" y="441.0" text-anchor="middle" font-size="11" fill="#222">33.52</text>
<text x="870.5" y="552" text-anchor="middle" font-size="12">P2 / D2</text>
<text x="870.5" y="568" text-anchor="middle" font-size="11" class="muted">4 GPUs, balanced</text>
<rect x="966.3" y="449.0" width="159.7" height="1.0" fill="#d62728" rx="3" />
<text x="1046.2" y="441.0" text-anchor="middle" font-size="11" fill="#222">33.52</text>
<text x="1046.2" y="552" text-anchor="middle" font-size="12">P1 / D3</text>
<text x="1046.2" y="568" text-anchor="middle" font-size="11" class="muted">4 GPUs, decode-heavy</text>
<text x="88" y="602" font-size="17" font-weight="700">Mean E2E improvement</text>
<text x="1126" y="602" text-anchor="end" font-size="12" class="muted">positive is better</text>
<line x1="88" y1="782.0" x2="1126" y2="782.0" class="grid" />
<text x="78" y="786.0" text-anchor="end" font-size="11" class="muted">-0.15%</text>
<line x1="88" y1="741.5" x2="1126" y2="741.5" class="grid" />
<text x="78" y="745.5" text-anchor="end" font-size="11" class="muted">0.23%</text>
<line x1="88" y1="701.0" x2="1126" y2="701.0" class="grid" />
<text x="78" y="705.0" text-anchor="end" font-size="11" class="muted">0.61%</text>
<line x1="88" y1="660.5" x2="1126" y2="660.5" class="grid" />
<text x="78" y="664.5" text-anchor="end" font-size="11" class="muted">0.99%</text>
<line x1="88" y1="620.0" x2="1126" y2="620.0" class="grid" />
<text x="78" y="624.0" text-anchor="end" font-size="11" class="muted">1.36%</text>
<line x1="88" y1="766.3" x2="1126" y2="766.3" stroke="#222" stroke-width="1.5" stroke-dasharray="6 5" />
<text x="1134" y="770.3" font-size="11" class="muted">baseline</text>
<rect x="88.0" y="766.3" width="159.7" height="1.0" fill="#303030" rx="3" />
<text x="167.8" y="758.3" text-anchor="middle" font-size="11" fill="#222">1106.21</text>
<text x="167.8" y="804" text-anchor="middle" font-size="12">P1 / D1</text>
<text x="167.8" y="820" text-anchor="middle" font-size="11" class="muted">2 GPUs, calibrated</text>
<rect x="263.7" y="699.2" width="159.7" height="67.1" fill="#2ca02c" rx="3" />
<text x="343.5" y="691.2" text-anchor="middle" font-size="11" fill="#222">1099.30</text>
<text x="343.5" y="804" text-anchor="middle" font-size="12">P2 / D1</text>
<text x="343.5" y="820" text-anchor="middle" font-size="11" class="muted">3 GPUs, prefill-heavy</text>
<rect x="439.3" y="688.2" width="159.7" height="78.1" fill="#d62728" rx="3" />
<text x="519.2" y="680.2" text-anchor="middle" font-size="11" fill="#222">1098.16</text>
<text x="519.2" y="804" text-anchor="middle" font-size="12">P1 / D2</text>
<text x="519.2" y="820" text-anchor="middle" font-size="11" class="muted">3 GPUs, decode-heavy</text>
<rect x="615.0" y="694.2" width="159.7" height="72.2" fill="#2ca02c" rx="3" />
<text x="694.8" y="686.2" text-anchor="middle" font-size="11" fill="#222">1098.77</text>
<text x="694.8" y="804" text-anchor="middle" font-size="12">P3 / D1</text>
<text x="694.8" y="820" text-anchor="middle" font-size="11" class="muted">4 GPUs, prefill-heavy</text>
<rect x="790.7" y="635.7" width="159.7" height="130.6" fill="#1f77b4" rx="3" />
<text x="870.5" y="627.7" text-anchor="middle" font-size="11" fill="#222">1092.75</text>
<text x="870.5" y="804" text-anchor="middle" font-size="12">P2 / D2</text>
<text x="870.5" y="820" text-anchor="middle" font-size="11" class="muted">4 GPUs, balanced</text>
<rect x="966.3" y="667.9" width="159.7" height="98.4" fill="#d62728" rx="3" />
<text x="1046.2" y="659.9" text-anchor="middle" font-size="11" fill="#222">1096.07</text>
<text x="1046.2" y="804" text-anchor="middle" font-size="12">P1 / D3</text>
<text x="1046.2" y="820" text-anchor="middle" font-size="11" class="muted">4 GPUs, decode-heavy</text>
<text x="88" y="854" font-size="17" font-weight="700">Output Token Throughput improvement</text>
<text x="1126" y="854" text-anchor="end" font-size="12" class="muted">positive is better</text>
<line x1="88" y1="1034.0" x2="1126" y2="1034.0" class="grid" />
<text x="78" y="1038.0" text-anchor="end" font-size="11" class="muted">-0.10%</text>
<line x1="88" y1="993.5" x2="1126" y2="993.5" class="grid" />
<text x="78" y="997.5" text-anchor="end" font-size="11" class="muted">0.06%</text>
<line x1="88" y1="953.0" x2="1126" y2="953.0" class="grid" />
<text x="78" y="957.0" text-anchor="end" font-size="11" class="muted">0.21%</text>
<line x1="88" y1="912.5" x2="1126" y2="912.5" class="grid" />
<text x="78" y="916.5" text-anchor="end" font-size="11" class="muted">0.37%</text>
<line x1="88" y1="872.0" x2="1126" y2="872.0" class="grid" />
<text x="78" y="876.0" text-anchor="end" font-size="11" class="muted">0.52%</text>
<line x1="88" y1="1008.0" x2="1126" y2="1008.0" stroke="#222" stroke-width="1.5" stroke-dasharray="6 5" />
<text x="1134" y="1012.0" font-size="11" class="muted">baseline</text>
<rect x="88.0" y="1008.0" width="159.7" height="1.0" fill="#303030" rx="3" />
<text x="167.8" y="1000.0" text-anchor="middle" font-size="11" fill="#222">195.27</text>
<text x="167.8" y="1056" text-anchor="middle" font-size="12">P1 / D1</text>
<text x="167.8" y="1072" text-anchor="middle" font-size="11" class="muted">2 GPUs, calibrated</text>
<rect x="263.7" y="917.2" width="159.7" height="90.8" fill="#2ca02c" rx="3" />
<text x="343.5" y="909.2" text-anchor="middle" font-size="11" fill="#222">195.95</text>
<text x="343.5" y="1056" text-anchor="middle" font-size="12">P2 / D1</text>
<text x="343.5" y="1072" text-anchor="middle" font-size="11" class="muted">3 GPUs, prefill-heavy</text>
<rect x="439.3" y="984.6" width="159.7" height="23.4" fill="#d62728" rx="3" />
<text x="519.2" y="976.6" text-anchor="middle" font-size="11" fill="#222">195.45</text>
<text x="519.2" y="1056" text-anchor="middle" font-size="12">P1 / D2</text>
<text x="519.2" y="1072" text-anchor="middle" font-size="11" class="muted">3 GPUs, decode-heavy</text>
<rect x="615.0" y="917.2" width="159.7" height="90.8" fill="#2ca02c" rx="3" />
<text x="694.8" y="909.2" text-anchor="middle" font-size="11" fill="#222">195.95</text>
<text x="694.8" y="1056" text-anchor="middle" font-size="12">P3 / D1</text>
<text x="694.8" y="1072" text-anchor="middle" font-size="11" class="muted">4 GPUs, prefill-heavy</text>
<rect x="790.7" y="898.0" width="159.7" height="110.0" fill="#1f77b4" rx="3" />
<text x="870.5" y="890.0" text-anchor="middle" font-size="11" fill="#222">196.10</text>
<text x="870.5" y="1056" text-anchor="middle" font-size="12">P2 / D2</text>
<text x="870.5" y="1072" text-anchor="middle" font-size="11" class="muted">4 GPUs, balanced</text>
<rect x="966.3" y="956.5" width="159.7" height="51.5" fill="#d62728" rx="3" />
<text x="1046.2" y="948.5" text-anchor="middle" font-size="11" fill="#222">195.66</text>
<text x="1046.2" y="1056" text-anchor="middle" font-size="12">P1 / D3</text>
<text x="1046.2" y="1072" text-anchor="middle" font-size="11" class="muted">4 GPUs, decode-heavy</text>
<rect x="88" y="1084" width="12" height="12" fill="#303030" rx="2" />
<text x="106" y="1095" font-size="12">Calibrated reference</text>
<rect x="298" y="1084" width="12" height="12" fill="#1f77b4" rx="2" />
<text x="316" y="1095" font-size="12">Balanced</text>
<rect x="508" y="1084" width="12" height="12" fill="#2ca02c" rx="2" />
<text x="526" y="1095" font-size="12">Prefill-heavy</text>
<rect x="718" y="1084" width="12" height="12" fill="#d62728" rx="2" />
<text x="736" y="1095" font-size="12">Decode-heavy</text>
</svg>
