<svg xmlns="http://www.w3.org/2000/svg" width="1180" height="996">
<rect width="1180" height="996" fill="#ffffff" />
<style>text{font-family:Arial,Helvetica,sans-serif;}.muted{fill:#626262}.grid{stroke:#e8e8e8}.axis{stroke:#333}</style>
<text x="590.0" y="34" text-anchor="middle" font-size="24" font-weight="700">Output Token Throughput Under Pressure</text>
<text x="590.0" y="58" text-anchor="middle" font-size="13" class="muted">Each panel fixes average input tokens; x-axis sweeps request rate. TP=1 and every row uses 4 logical GPUs.</text>
<text x="590.0" y="77" text-anchor="middle" font-size="13" class="muted">Raw tokens/s values; higher is better. All rows are extrapolated until matching measurements exist.</text>
<text x="88" y="92" font-size="16" font-weight="700">avg input 128 tokens</text>
<line x1="88" y1="276.0" x2="990" y2="276.0" class="grid" />
<text x="78" y="280.0" text-anchor="end" font-size="11" class="muted">93.1</text>
<line x1="88" y1="233.5" x2="990" y2="233.5" class="grid" />
<text x="78" y="237.5" text-anchor="end" font-size="11" class="muted">185.1</text>
<line x1="88" y1="191.0" x2="990" y2="191.0" class="grid" />
<text x="78" y="195.0" text-anchor="end" font-size="11" class="muted">277.1</text>
<line x1="88" y1="148.5" x2="990" y2="148.5" class="grid" />
<text x="78" y="152.5" text-anchor="end" font-size="11" class="muted">369.1</text>
<line x1="88" y1="106.0" x2="990" y2="106.0" class="grid" />
<text x="78" y="110.0" text-anchor="end" font-size="11" class="muted">461.1</text>
<line x1="88.0" y1="106" x2="88.0" y2="276" class="grid" />
<line x1="388.7" y1="106" x2="388.7" y2="276" class="grid" />
<line x1="689.3" y1="106" x2="689.3" y2="276" class="grid" />
<line x1="990.0" y1="106" x2="990.0" y2="276" class="grid" />
<line x1="88" y1="276" x2="990" y2="276" class="axis" />
<path d="M 88.0 264.2 L 388.7 212.6 L 689.3 163.7 L 990.0 117.8" fill="none" stroke="#d62728" stroke-width="2.5" />
<circle cx="88.0" cy="264.2" r="4.5" fill="#d62728" />
<circle cx="388.7" cy="212.6" r="4.5" fill="#d62728" />
<circle cx="689.3" cy="163.7" r="4.5" fill="#d62728" />
<circle cx="990.0" cy="117.8" r="4.5" fill="#d62728" />
<text x="998.0" y="121.8" font-size="11" fill="#d62728">435.4</text>
<path d="M 88.0 264.2 L 388.7 212.6 L 689.3 163.6 L 990.0 117.7" fill="none" stroke="#1f77b4" stroke-width="2.5" />
<circle cx="88.0" cy="264.2" r="4.5" fill="#1f77b4" />
<circle cx="388.7" cy="212.6" r="4.5" fill="#1f77b4" />
<circle cx="689.3" cy="163.6" r="4.5" fill="#1f77b4" />
<circle cx="990.0" cy="117.7" r="4.5" fill="#1f77b4" />
<text x="998.0" y="121.7" font-size="11" fill="#1f77b4">435.7</text>
<path d="M 88.0 264.2 L 388.7 212.6 L 689.3 163.6 L 990.0 117.7" fill="none" stroke="#2ca02c" stroke-width="2.5" />
<circle cx="88.0" cy="264.2" r="4.5" fill="#2ca02c" />
<circle cx="388.7" cy="212.6" r="4.5" fill="#2ca02c" />
<circle cx="689.3" cy="163.6" r="4.5" fill="#2ca02c" />
<circle cx="990.0" cy="117.7" r="4.5" fill="#2ca02c" />
<text x="998.0" y="121.7" font-size="11" fill="#2ca02c">435.7</text>
<text x="88" y="306" font-size="16" font-weight="700">avg input 256 tokens</text>
<line x1="88" y1="490.0" x2="990" y2="490.0" class="grid" />
<text x="78" y="494.0" text-anchor="end" font-size="11" class="muted">93.1</text>
<line x1="88" y1="447.5" x2="990" y2="447.5" class="grid" />
<text x="78" y="451.5" text-anchor="end" font-size="11" class="muted">185.1</text>
<line x1="88" y1="405.0" x2="990" y2="405.0" class="grid" />
<text x="78" y="409.0" text-anchor="end" font-size="11" class="muted">277.1</text>
<line x1="88" y1="362.5" x2="990" y2="362.5" class="grid" />
<text x="78" y="366.5" text-anchor="end" font-size="11" class="muted">369.1</text>
<line x1="88" y1="320.0" x2="990" y2="320.0" class="grid" />
<text x="78" y="324.0" text-anchor="end" font-size="11" class="muted">461.1</text>
<line x1="88.0" y1="320" x2="88.0" y2="490" class="grid" />
<line x1="388.7" y1="320" x2="388.7" y2="490" class="grid" />
<line x1="689.3" y1="320" x2="689.3" y2="490" class="grid" />
<line x1="990.0" y1="320" x2="990.0" y2="490" class="grid" />
<line x1="88" y1="490" x2="990" y2="490" class="axis" />
<path d="M 88.0 478.2 L 388.7 426.6 L 689.3 377.8 L 990.0 332.0" fill="none" stroke="#d62728" stroke-width="2.5" />
<circle cx="88.0" cy="478.2" r="4.5" fill="#d62728" />
<circle cx="388.7" cy="426.6" r="4.5" fill="#d62728" />
<circle cx="689.3" cy="377.8" r="4.5" fill="#d62728" />
<circle cx="990.0" cy="332.0" r="4.5" fill="#d62728" />
<text x="998.0" y="336.0" font-size="11" fill="#d62728">435.2</text>
<path d="M 88.0 478.2 L 388.7 426.6 L 689.3 377.7 L 990.0 331.8" fill="none" stroke="#1f77b4" stroke-width="2.5" />
<circle cx="88.0" cy="478.2" r="4.5" fill="#1f77b4" />
<circle cx="388.7" cy="426.6" r="4.5" fill="#1f77b4" />
<circle cx="689.3" cy="377.7" r="4.5" fill="#1f77b4" />
<circle cx="990.0" cy="331.8" r="4.5" fill="#1f77b4" />
<text x="998.0" y="335.8" font-size="11" fill="#1f77b4">435.5</text>
<path d="M 88.0 478.2 L 388.7 426.6 L 689.3 377.6 L 990.0 331.8" fill="none" stroke="#2ca02c" stroke-width="2.5" />
<circle cx="88.0" cy="478.2" r="4.5" fill="#2ca02c" />
<circle cx="388.7" cy="426.6" r="4.5" fill="#2ca02c" />
<circle cx="689.3" cy="377.6" r="4.5" fill="#2ca02c" />
<circle cx="990.0" cy="331.8" r="4.5" fill="#2ca02c" />
<text x="998.0" y="335.8" font-size="11" fill="#2ca02c">435.5</text>
<text x="88" y="520" font-size="16" font-weight="700">avg input 512 tokens</text>
<line x1="88" y1="704.0" x2="990" y2="704.0" class="grid" />
<text x="78" y="708.0" text-anchor="end" font-size="11" class="muted">93.1</text>
<line x1="88" y1="661.5" x2="990" y2="661.5" class="grid" />
<text x="78" y="665.5" text-anchor="end" font-size="11" class="muted">185.1</text>
<line x1="88" y1="619.0" x2="990" y2="619.0" class="grid" />
<text x="78" y="623.0" text-anchor="end" font-size="11" class="muted">277.1</text>
<line x1="88" y1="576.5" x2="990" y2="576.5" class="grid" />
<text x="78" y="580.5" text-anchor="end" font-size="11" class="muted">369.1</text>
<line x1="88" y1="534.0" x2="990" y2="534.0" class="grid" />
<text x="78" y="538.0" text-anchor="end" font-size="11" class="muted">461.1</text>
<line x1="88.0" y1="534" x2="88.0" y2="704" class="grid" />
<line x1="388.7" y1="534" x2="388.7" y2="704" class="grid" />
<line x1="689.3" y1="534" x2="689.3" y2="704" class="grid" />
<line x1="990.0" y1="534" x2="990.0" y2="704" class="grid" />
<line x1="88" y1="704" x2="990" y2="704" class="axis" />
<path d="M 88.0 692.3 L 388.7 640.7 L 689.3 592.1 L 990.0 546.8" fill="none" stroke="#d62728" stroke-width="2.5" />
<circle cx="88.0" cy="692.3" r="4.5" fill="#d62728" />
<circle cx="388.7" cy="640.7" r="4.5" fill="#d62728" />
<circle cx="689.3" cy="592.1" r="4.5" fill="#d62728" />
<circle cx="990.0" cy="546.8" r="4.5" fill="#d62728" />
<text x="998.0" y="550.8" font-size="11" fill="#d62728">433.4</text>
<path d="M 88.0 692.3 L 388.7 640.6 L 689.3 591.7 L 990.0 546.0" fill="none" stroke="#1f77b4" stroke-width="2.5" />
<circle cx="88.0" cy="692.3" r="4.5" fill="#1f77b4" />
<circle cx="388.7" cy="640.6" r="4.5" fill="#1f77b4" />
<circle cx="689.3" cy="591.7" r="4.5" fill="#1f77b4" />
<circle cx="990.0" cy="546.0" r="4.5" fill="#1f77b4" />
<text x="998.0" y="550.0" font-size="11" fill="#1f77b4">435.2</text>
<path d="M 88.0 692.3 L 388.7 640.7 L 689.3 591.7 L 990.0 546.0" fill="none" stroke="#2ca02c" stroke-width="2.5" />
<circle cx="88.0" cy="692.3" r="4.5" fill="#2ca02c" />
<circle cx="388.7" cy="640.7" r="4.5" fill="#2ca02c" />
<circle cx="689.3" cy="591.7" r="4.5" fill="#2ca02c" />
<circle cx="990.0" cy="546.0" r="4.5" fill="#2ca02c" />
<text x="998.0" y="550.0" font-size="11" fill="#2ca02c">435.2</text>
<text x="88" y="734" font-size="16" font-weight="700">avg input 1024 tokens</text>
<line x1="88" y1="918.0" x2="990" y2="918.0" class="grid" />
<text x="78" y="922.0" text-anchor="end" font-size="11" class="muted">93.1</text>
<line x1="88" y1="875.5" x2="990" y2="875.5" class="grid" />
<text x="78" y="879.5" text-anchor="end" font-size="11" class="muted">185.1</text>
<line x1="88" y1="833.0" x2="990" y2="833.0" class="grid" />
<text x="78" y="837.0" text-anchor="end" font-size="11" class="muted">277.1</text>
<line x1="88" y1="790.5" x2="990" y2="790.5" class="grid" />
<text x="78" y="794.5" text-anchor="end" font-size="11" class="muted">369.1</text>
<line x1="88" y1="748.0" x2="990" y2="748.0" class="grid" />
<text x="78" y="752.0" text-anchor="end" font-size="11" class="muted">461.1</text>
<line x1="88.0" y1="748" x2="88.0" y2="918" class="grid" />
<text x="88.0" y="942" text-anchor="middle" font-size="12">4</text>
<line x1="388.7" y1="748" x2="388.7" y2="918" class="grid" />
<text x="388.7" y="942" text-anchor="middle" font-size="12">8</text>
<line x1="689.3" y1="748" x2="689.3" y2="918" class="grid" />
<text x="689.3" y="942" text-anchor="middle" font-size="12">12</text>
<line x1="990.0" y1="748" x2="990.0" y2="918" class="grid" />
<text x="990.0" y="942" text-anchor="middle" font-size="12">16</text>
<line x1="88" y1="918" x2="990" y2="918" class="axis" />
<path d="M 88.0 906.3 L 388.7 855.0 L 689.3 806.9 L 990.0 763.8" fill="none" stroke="#d62728" stroke-width="2.5" />
<circle cx="88.0" cy="906.3" r="4.5" fill="#d62728" />
<circle cx="388.7" cy="855.0" r="4.5" fill="#d62728" />
<circle cx="689.3" cy="806.9" r="4.5" fill="#d62728" />
<circle cx="990.0" cy="763.8" r="4.5" fill="#d62728" />
<text x="998.0" y="767.8" font-size="11" fill="#d62728">426.8</text>
<path d="M 88.0 906.3 L 388.7 854.7 L 689.3 805.9 L 990.0 760.9" fill="none" stroke="#1f77b4" stroke-width="2.5" />
<circle cx="88.0" cy="906.3" r="4.5" fill="#1f77b4" />
<circle cx="388.7" cy="854.7" r="4.5" fill="#1f77b4" />
<circle cx="689.3" cy="805.9" r="4.5" fill="#1f77b4" />
<circle cx="990.0" cy="760.9" r="4.5" fill="#1f77b4" />
<text x="998.0" y="764.9" font-size="11" fill="#1f77b4">433.2</text>
<path d="M 88.0 906.3 L 388.7 854.8 L 689.3 805.9 L 990.0 760.3" fill="none" stroke="#2ca02c" stroke-width="2.5" />
<circle cx="88.0" cy="906.3" r="4.5" fill="#2ca02c" />
<circle cx="388.7" cy="854.8" r="4.5" fill="#2ca02c" />
<circle cx="689.3" cy="805.9" r="4.5" fill="#2ca02c" />
<circle cx="990.0" cy="760.3" r="4.5" fill="#2ca02c" />
<text x="998.0" y="764.3" font-size="11" fill="#2ca02c">434.5</text>
<text x="539.0" y="968" text-anchor="middle" font-size="13">Request rate (requests/s)</text>
<text x="1024" y="88" font-size="13" font-weight="700">Assignment</text>
<circle cx="1024" cy="106" r="5" fill="#d62728" />
<text x="1037" y="110" font-size="12">P1/D3</text>
<circle cx="1024" cy="130" r="5" fill="#1f77b4" />
<text x="1037" y="134" font-size="12">P2/D2</text>
<circle cx="1024" cy="154" r="5" fill="#2ca02c" />
<text x="1037" y="158" font-size="12">P3/D1</text>
</svg>
